<svg xmlns="http://www.w3.org/2000/svg" width="192" height="192" viewBox="0 0 192 192" role="img" aria-labelledby="title desc">
  <title id="title">FaroAI Fa 科技小猪助手</title>
  <desc id="desc">圆润的小猪 AI 助手图标，带透明头盔、Fa 标识和蓝绿色科技光效。</desc>
  <defs>
    <radialGradient id="halo" cx="50%" cy="48%" r="62%">
      <stop offset="0%" stop-color="#E0F7FF" stop-opacity="0.92"/>
      <stop offset="48%" stop-color="#93C5FD" stop-opacity="0.36"/>
      <stop offset="100%" stop-color="#2563EB" stop-opacity="0"/>
    </radialGradient>
    <linearGradient id="helmet" x1="37" y1="18" x2="154" y2="154" gradientUnits="userSpaceOnUse">
      <stop offset="0%" stop-color="#F8FBFF" stop-opacity="0.95"/>
      <stop offset="45%" stop-color="#BAE6FD" stop-opacity="0.56"/>
      <stop offset="100%" stop-color="#2563EB" stop-opacity="0.18"/>
    </linearGradient>
    <linearGradient id="face" x1="52" y1="50" x2="139" y2="142" gradientUnits="userSpaceOnUse">
      <stop offset="0%" stop-color="#FFF7ED"/>
      <stop offset="45%" stop-color="#FED7D7"/>
      <stop offset="100%" stop-color="#FDBA74"/>
    </linearGradient>
    <linearGradient id="suit" x1="62" y1="115" x2="130" y2="180" gradientUnits="userSpaceOnUse">
      <stop offset="0%" stop-color="#38BDF8"/>
      <stop offset="58%" stop-color="#2563EB"/>
      <stop offset="100%" stop-color="#0F172A"/>
    </linearGradient>
    <linearGradient id="accent" x1="56" y1="41" x2="142" y2="145" gradientUnits="userSpaceOnUse">
      <stop offset="0%" stop-color="#E74C3C"/>
      <stop offset="52%" stop-color="#2563EB"/>
      <stop offset="100%" stop-color="#5EEAD4"/>
    </linearGradient>
    <filter id="softShadow" x="-30%" y="-30%" width="160%" height="170%">
      <feDropShadow dx="0" dy="16" stdDeviation="12" flood-color="#0F172A" flood-opacity="0.22"/>
      <feDropShadow dx="0" dy="0" stdDeviation="7" flood-color="#38BDF8" flood-opacity="0.26"/>
    </filter>
  </defs>
  <circle cx="96" cy="96" r="86" fill="url(#halo)"/>
  <g filter="url(#softShadow)">
    <ellipse cx="96" cy="164" rx="43" ry="12" fill="#0F172A" opacity="0.16"/>
    <path d="M65 119c-7 8-10 20-9 33 12 15 68 15 80 0 1-13-2-25-9-33-16 9-46 9-62 0Z" fill="url(#suit)"/>
    <path d="M76 132h40c5 0 9 4 9 9v18H67v-18c0-5 4-9 9-9Z" fill="#E0F2FE" opacity="0.18"/>
    <rect x="78" y="137" width="36" height="21" rx="8" fill="#0F172A" opacity="0.52"/>
    <text x="96" y="152" text-anchor="middle" font-family="Avenir Next, Inter, Arial, sans-serif" font-size="16" font-weight="800" fill="#E0F2FE">Fa</text>
    <path d="M53 74c-12-14-10-30-1-36 10-7 25 2 28 18" fill="#FED7D7"/>
    <path d="M139 74c12-14 10-30 1-36-10-7-25 2-28 18" fill="#FED7D7"/>
    <path d="M58 51c5-5 13-2 16 7-7-1-13 2-18 7-2-5-2-10 2-14Z" fill="#FFF7ED" opacity="0.76"/>
    <path d="M134 51c-5-5-13-2-16 7 7-1 13 2 18 7 2-5 2-10-2-14Z" fill="#FFF7ED" opacity="0.76"/>
    <ellipse cx="96" cy="88" rx="54" ry="50" fill="url(#face)"/>
    <path d="M50 91c5-27 24-45 47-45 22 0 40 17 45 43" fill="none" stroke="url(#accent)" stroke-width="7" stroke-linecap="round"/>
    <ellipse cx="96" cy="100" rx="23" ry="16" fill="#FFE4E6" stroke="#FCA5A5" stroke-width="2"/>
    <circle cx="88" cy="101" r="3.4" fill="#0F172A" opacity="0.76"/>
    <circle cx="104" cy="101" r="3.4" fill="#0F172A" opacity="0.76"/>
    <path d="M79 82c4-4 9-4 13-1" fill="none" stroke="#0F172A" stroke-width="4" stroke-linecap="round" opacity="0.78"/>
    <path d="M113 81c4-3 9-3 13 1" fill="none" stroke="#0F172A" stroke-width="4" stroke-linecap="round" opacity="0.78"/>
    <circle cx="86" cy="86" r="4" fill="#0F172A"/>
    <circle cx="118" cy="86" r="4" fill="#0F172A"/>
    <circle cx="84.7" cy="84.6" r="1.3" fill="#FFFFFF"/>
    <circle cx="116.7" cy="84.6" r="1.3" fill="#FFFFFF"/>
    <path d="M90 116c4 4 8 4 12 0" fill="none" stroke="#7C2D12" stroke-width="3" stroke-linecap="round" opacity="0.58"/>
    <ellipse cx="96" cy="84" rx="64" ry="61" fill="url(#helmet)" stroke="#BFDBFE" stroke-width="3" opacity="0.72"/>
    <path d="M50 75c16-25 68-34 93 2" fill="none" stroke="#F8FAFC" stroke-width="4" stroke-linecap="round" opacity="0.62"/>
    <path d="M47 102c15 33 82 41 101 1" fill="none" stroke="#38BDF8" stroke-width="2.4" stroke-linecap="round" opacity="0.42"/>
    <circle cx="54" cy="92" r="6" fill="#2563EB"/>
    <circle cx="138" cy="92" r="6" fill="#5EEAD4"/>
    <path d="M44 92h20M128 92h20" stroke="#93C5FD" stroke-width="3" stroke-linecap="round"/>
  </g>
</svg>
