<svg xmlns="http://www.w3.org/2000/svg" viewBox="0 0 1200 630" role="img" aria-labelledby="title desc">
  <title id="title">FaroAI</title>
  <desc id="desc">本地优先的 AI 助手工作台</desc>
  <defs>
    <linearGradient id="bg" x1="0" y1="0" x2="1200" y2="630" gradientUnits="userSpaceOnUse">
      <stop stop-color="#08111f"/>
      <stop offset=".56" stop-color="#0f172a"/>
      <stop offset="1" stop-color="#063332"/>
    </linearGradient>
    <linearGradient id="word" x1="360" y1="230" x2="780" y2="315" gradientUnits="userSpaceOnUse">
      <stop stop-color="#1d4ed8"/>
      <stop offset=".48" stop-color="#2563eb"/>
      <stop offset=".78" stop-color="#0ea5e9"/>
      <stop offset="1" stop-color="#5eead4"/>
    </linearGradient>
  </defs>
  <rect width="1200" height="630" fill="url(#bg)"/>
  <g opacity=".26" stroke="#93c5fd">
    <path d="M0 110h1200M0 220h1200M0 330h1200M0 440h1200M0 550h1200"/>
    <path d="M120 0v630M240 0v630M360 0v630M480 0v630M600 0v630M720 0v630M840 0v630M960 0v630M1080 0v630"/>
  </g>
  <circle cx="930" cy="120" r="260" fill="#0f766e" opacity=".18"/>
  <circle cx="210" cy="500" r="260" fill="#2563eb" opacity=".2"/>
  <path d="M190 344c54 80 202 80 270 0" fill="none" stroke="#e74c3c" stroke-width="26" stroke-linecap="round"/>
  <path d="M190 286c54-80 202-80 270 0" fill="none" stroke="#60a5fa" stroke-width="26" stroke-linecap="round"/>
  <circle cx="325" cy="315" r="42" fill="#020617"/>
  <path d="M294 315h62M325 284v62" stroke="#fff" stroke-width="18" stroke-linecap="round"/>
  <text x="520" y="340" font-family="-apple-system,BlinkMacSystemFont,'Segoe UI',Arial,sans-serif" font-size="116" font-weight="850" letter-spacing="0">
    <tspan fill="#e74c3c">F</tspan><tspan fill="url(#word)">aro</tspan><tspan fill="#e74c3c">A</tspan><tspan fill="#5eead4">I</tspan>
  </text>
  <text x="200" y="455" fill="#cbd5e1" font-family="-apple-system,BlinkMacSystemFont,'Segoe UI','PingFang SC',Arial,sans-serif" font-size="42" font-weight="650">把 AI 接进微信、知识库和自动化工作流</text>
  <text x="200" y="512" fill="#93c5fd" font-family="ui-monospace,SFMono-Regular,Menlo,Consolas,monospace" font-size="26" font-weight="700">OpenClaw 2026.5.12 · Weixin · Ollama local model verified</text>
</svg>
